<svg class="border shadow-md" viewBox="0 0 1024.711111111111 576.4" style="width: 1024.71px; height: 576.4px;" xmlns="http://www.w3.org/2000/svg" preserveAspectRatio="none"><rect class="bg" id="bg" x="0" y="0" width="1024.711111111111" height="576.4" fill="#ffffff"/><g transform="translate(-360.25 216.14999999999998) scale(1)"><path d="M620.5,503Q525,646,356.5,652Q188,658,159.5,509Q131,360,175.5,239Q220,118,350,135Q480,152,598,256Q716,360,620.5,503Z" fill="#4f46e5" stroke="none" stroke-width="10"/></g><g transform="translate(664.461111111111 -360.25) scale(1)"><path d="M585.5,458.5Q474,557,355.5,565.5Q237,574,138,467Q39,360,114,212Q189,64,332.5,112Q476,160,586.5,260Q697,360,585.5,458.5Z" fill="#4f46e5" stroke="none" stroke-width="10"/></g></svg>